<svg xmlns="http://www.w3.org/2000/svg" version="1.1" xmlns:xlink="http://www.w3.org/1999/xlink" xmlns:svgjs="http://svgjs.dev/svgjs" width="1500" height="1500" viewBox="0 0 1500 1500"><rect width="1500" height="1500" fill="#ffffff"></rect><g transform="matrix(0.6666666666666666,0,0,0.6666666666666666,250,250)"><svg viewBox="0 0 280 280" data-background-color="#ffffff" preserveAspectRatio="xMidYMid meet" height="1500" width="1500" xmlns="http://www.w3.org/2000/svg" xmlns:xlink="http://www.w3.org/1999/xlink"><g id="tight-bounds" transform="matrix(1,0,0,1,0,0)"><svg viewBox="0 0 280 280" height="280" width="280"><g><svg viewBox="0 0 280 280" height="280" width="280"><g><svg viewBox="0 0 280 280" height="280" width="280"><g id="textblocktransform"><svg viewBox="0 0 280 280" height="280" width="280" id="textblock"><g><svg viewBox="0 0 280 280" height="280" width="280"><g transform="matrix(1,0,0,1,81.98862968829108,78.62313139300767)"><svg viewBox="0 0 116.02274062341783 122.75373721398466" height="122.75373721398466" width="116.02274062341783"><g id="icon-0"><svg xmlns="http://www.w3.org/2000/svg" xmlns:xlink="http://www.w3.org/1999/xlink" version="1.1" x="0" y="0" viewBox="7.796 6 85.065 90" enable-background="new 0 0 100 100" xml:space="preserve" height="122.75373721398466" width="116.02274062341783" class="icon-jxe-0" data-fill-palette-color="accent" id="jxe-0"><g fill="#38b2ac" data-fill-palette-color="accent"><polygon points="53.797,91.277 53.797,93.539 58.06,96 92.768,75.961 92.768,73.699 58.06,93.738  " fill="#38b2ac" data-fill-palette-color="accent"></polygon><polygon points="84.243,72.783 77.544,76.639 77.544,73.121 69.019,78.055 69.019,81.545 62.322,85.4 62.322,81.933 57.924,84.478    53.797,82.081 53.797,90.793 58.06,93.256 62.322,90.793 62.322,86.372 69.441,82.274 73.283,84.492 77.544,82.031 77.544,77.61    84.7,73.492 88.506,75.691 92.768,73.228 92.768,64.313 84.243,69.247  " fill="#38b2ac" data-fill-palette-color="accent"></polygon><polygon points="39.321,77.283 39.321,73.677 30.796,68.727 30.796,77.283 35.059,79.745  " fill="#38b2ac" data-fill-palette-color="accent"></polygon><polygon points="35.059,80.228 30.796,77.767 30.796,80.029 35.059,82.49 44.808,76.86 42.855,75.726  " fill="#38b2ac" data-fill-palette-color="accent"></polygon><polygon points="16.321,64.246 16.321,60.322 7.796,55.374 7.796,64.246 12.058,66.705  " fill="#38b2ac" data-fill-palette-color="accent"></polygon><polygon points="12.058,67.189 7.796,64.728 7.796,66.99 12.058,69.451 22.081,63.667 20.126,62.532  " fill="#38b2ac" data-fill-palette-color="accent"></polygon><polygon points="91.562,38.886 91.863,39.059 57.877,58.727 8.794,30.226 9.143,30.029 8.052,29.396 7.796,29.542 7.796,32.061    58.06,61.245 92.86,41.105 92.86,38.587 92.469,38.36  " fill="#38b2ac" data-fill-palette-color="accent"></polygon><polygon points="91.562,42.601 91.863,42.773 57.877,62.439 8.794,33.941 9.143,33.742 8.052,33.112 7.796,33.256 7.796,35.775    58.06,64.958 92.86,44.818 92.86,42.3 92.469,42.076  " fill="#38b2ac" data-fill-palette-color="accent"></polygon><polygon points="91.562,46.317 91.863,46.49 57.877,66.154 8.794,37.657 9.143,37.458 8.052,36.826 7.796,36.971 7.796,39.49    58.06,68.673 92.86,48.533 92.86,46.015 92.469,45.791  " fill="#38b2ac" data-fill-palette-color="accent"></polygon><polygon points="91.562,50.028 91.863,50.201 57.877,69.871 8.794,41.369 9.143,41.173 8.052,40.54 7.796,40.684 7.796,43.203    58.06,72.388 92.86,52.248 92.86,49.729 92.469,49.504  " fill="#38b2ac" data-fill-palette-color="accent"></polygon><polygon points="91.562,53.745 91.863,53.917 57.877,73.582 8.794,45.085 9.143,44.884 8.052,44.254 7.796,44.399 7.796,46.917    58.06,76.101 92.86,55.961 92.86,53.442 92.469,53.218  " fill="#38b2ac" data-fill-palette-color="accent"></polygon><polygon points="91.562,57.459 91.863,57.632 57.877,77.296 8.794,48.8 9.143,48.601 8.052,47.969 7.796,48.115 7.796,50.632    58.06,79.815 92.86,59.676 92.86,57.157 92.469,56.933  " fill="#38b2ac" data-fill-palette-color="accent"></polygon><polygon points="91.562,61.173 91.863,61.345 57.877,81.013 8.794,52.513 9.143,52.315 8.052,51.682 7.796,51.827 7.796,54.345    58.06,83.53 92.86,63.39 92.86,60.873 92.469,60.646  " fill="#38b2ac" data-fill-palette-color="accent"></polygon><path d="M42.597 6L7.796 25.811V28.328L58.06 57.514 92.861 37.374V34.855zM57.877 54.992L8.794 26.495 42.779 7.15 91.863 35.328z" fill="#38b2ac" data-fill-palette-color="accent"></path></g></svg></g></svg></g><g id="text-0"><path d="M17.068 86.191v0c1.915 0.682 3.345 1.704 4.289 3.067 0.944 1.362 1.461 2.922 1.55 4.68 0.086 1.764-0.205 3.585-0.874 5.463v0l-0.04 0.113c-0.183 0.515-0.411 1.074-0.682 1.678-0.265 0.606-0.422 0.957-0.471 1.053v0l7.319 2.606c0.188 0.067 0.398 0.064 0.629-0.009 0.223-0.069 0.397-0.241 0.523-0.514v0l1.083-2.534 1.686 0.601-3.68 10.333-1.686-0.601 0.581-2.138c0.073-0.285 0.049-0.535-0.073-0.748-0.131-0.209-0.29-0.347-0.479-0.415v0l-20.967-7.466c-0.188-0.067-0.402-0.062-0.642 0.015-0.236 0.086-0.409 0.265-0.52 0.537v0l-1.002 2.307-1.687-0.6 3.348-9.401c1.322-3.711 2.893-6.237 4.714-7.576 1.813-1.336 4.173-1.486 7.081-0.451zM15.669 90.299v0c-1.909-0.68-3.587-0.676-5.035 0.012-1.45 0.694-2.621 2.293-3.513 4.799v0c-0.127 0.358-0.271 0.781-0.431 1.268-0.162 0.494-0.243 0.741-0.243 0.742v0l12.377 4.407c0.022-0.063 0.161-0.343 0.416-0.839 0.259-0.488 0.454-0.917 0.586-1.288v0l0.043-0.122c0.725-2.035 0.769-3.837 0.133-5.409-0.64-1.58-2.085-2.77-4.333-3.57z" fill="#252525" data-fill-palette-color="primary"></path><path d="M42.037 78.016l1.407 0.822-5.119 8.763-1.407-0.822 1.016-1.978c0.098-0.167 0.109-0.392 0.035-0.674-0.065-0.285-0.175-0.473-0.331-0.564v0l-21.696-12.674-1.603 2.745-1.192-0.696 1.304-5.422 0.862-1.477 24.277 14.183c0.155 0.091 0.372 0.097 0.649 0.02 0.279-0.068 0.464-0.18 0.555-0.336v0z" fill="#252525" data-fill-palette-color="primary"></path><path d="M57.975 58.497l1.244 1.053-3.984 4.71-2.241-1.176c0 0-0.019 0.255-0.057 0.764-0.042 0.514-0.133 1.158-0.272 1.931-0.135 0.768-0.354 1.564-0.659 2.39-0.301 0.82-0.713 1.54-1.239 2.16v0c-0.973 1.15-2.184 1.802-3.632 1.956-1.449 0.154-2.842-0.335-4.181-1.467v0c-0.59-0.499-1.052-1.069-1.384-1.708-0.323-0.64-0.445-1.476-0.365-2.509 0.075-1.028 0.425-2.355 1.051-3.983 0.625-1.637 1.591-3.692 2.898-6.166v0l-1.366-1.156c-2.097-1.774-3.985-1.668-5.664 0.316v0c-0.465 0.55-0.812 1.068-1.041 1.556-0.234 0.483-0.387 0.829-0.459 1.039v0l2.771 2.344-1.963 2.32c-0.245 0.29-0.527 0.515-0.845 0.674-0.323 0.155-0.68 0.066-1.072-0.265v0c-0.87-0.736-1.301-1.672-1.292-2.809 0.005-1.131 0.308-2.32 0.909-3.566 0.601-1.247 1.345-2.394 2.231-3.443v0c1.111-1.313 2.178-2.161 3.201-2.544 1.028-0.379 2.023-0.41 2.986-0.093 0.968 0.321 1.913 0.872 2.833 1.651v0l8.932 7.556c0.198 0.168 0.413 0.24 0.642 0.216 0.239-0.025 0.446-0.12 0.622-0.286v0zM51.879 62.141v0l-5.511-4.662c-0.858 1.736-1.466 3.178-1.824 4.324-0.358 1.146-0.531 2.078-0.519 2.796 0.003 0.719 0.134 1.297 0.393 1.734 0.254 0.442 0.58 0.831 0.977 1.167v0c0.651 0.551 1.433 0.85 2.345 0.897 0.908 0.052 1.682-0.301 2.324-1.06v0c0.362-0.427 0.66-0.93 0.896-1.508 0.235-0.587 0.419-1.161 0.551-1.72 0.132-0.569 0.225-1.04 0.28-1.414 0.059-0.369 0.089-0.554 0.088-0.554z" fill="#252525" data-fill-palette-color="primary"></path><path d="M70.075 42.771v0c1.289 1.59 1.752 3.282 1.389 5.078-0.367 1.791-1.516 3.469-3.448 5.036v0c-0.989 0.802-1.987 1.439-2.993 1.912-1.007 0.473-1.728 0.774-2.163 0.904v0l-3.489-4.302 1.646-1.335 2.626 2.428c0.498-0.052 1.065-0.173 1.701-0.363 0.637-0.199 1.271-0.554 1.903-1.066v0c0.932-0.756 1.444-1.596 1.535-2.52 0.082-0.925-0.139-1.711-0.663-2.358v0c-0.693-0.854-1.521-1.251-2.485-1.191-0.968 0.055-2.234 0.271-3.799 0.648v0l-0.591 0.145c-1.634 0.398-3.012 0.55-4.135 0.456-1.122-0.103-2.075-0.639-2.861-1.607v0c-1.171-1.445-1.592-3-1.261-4.667 0.325-1.663 1.423-3.252 3.292-4.767v0c0.953-0.772 1.869-1.373 2.747-1.803 0.888-0.428 1.554-0.703 1.998-0.822v0l3.111 3.837-1.693 1.373-2.095-2.06c-0.371 0.009-0.849 0.117-1.434 0.326-0.586 0.209-1.13 0.517-1.633 0.924v0c-0.891 0.722-1.385 1.462-1.482 2.22-0.107 0.756 0.097 1.453 0.613 2.09v0c0.588 0.725 1.317 1.09 2.189 1.096 0.867 0.001 2.241-0.242 4.12-0.729v0c1.544-0.403 2.944-0.581 4.201-0.535 1.246 0.045 2.298 0.595 3.154 1.652z" fill="#252525" data-fill-palette-color="primary"></path><path d="M88.749 35.855v0l0.82 1.454c0 0-0.172 0.231-0.516 0.693-0.338 0.459-0.82 0.995-1.446 1.608-0.628 0.622-1.381 1.181-2.258 1.676v0c-1.359 0.766-2.53 1.003-3.515 0.708-0.985-0.294-1.882-1.158-2.69-2.592v0l-6.805-12.061-2.325 1.312-0.673-1.193 1.818-2.576-0.534-4.773 1.594-0.899 2.486 4.407 5.129-2.894 1.022 1.811-5.129 2.894 5.723 10.145c0.816 1.446 1.636 2.33 2.461 2.653 0.819 0.326 1.714 0.216 2.684-0.331v0c0.714-0.403 1.25-0.843 1.608-1.321 0.364-0.481 0.546-0.721 0.546-0.721z" fill="#252525" data-fill-palette-color="primary"></path><path d="M92.184 8.061v0c0.258 0.658 0.252 1.311-0.016 1.961-0.272 0.658-0.737 1.115-1.396 1.373v0c-0.658 0.258-1.316 0.24-1.975-0.054-0.663-0.285-1.123-0.756-1.38-1.414v0c-0.262-0.67-0.245-1.329 0.053-1.975 0.294-0.638 0.77-1.085 1.429-1.343v0c0.658-0.258 1.305-0.25 1.942 0.024 0.633 0.282 1.081 0.758 1.343 1.428zM103.424 30.902l0.594 1.518-9.124 3.572-0.594-1.518 1.846-0.851c0.532-0.251 0.693-0.644 0.484-1.178v0l-5.431-13.873-2.672 1.047-0.533-1.36 4.16-3.336 1.536-0.601 6.543 16.712c0.095 0.242 0.252 0.406 0.472 0.492 0.216 0.094 0.444 0.109 0.683 0.044v0z" fill="#252525" data-fill-palette-color="primary"></path><path d="M125.431 23.545v0l0.486 2.329c-0.81 0.687-1.745 1.362-2.805 2.026-1.066 0.665-2.291 1.142-3.675 1.43v0c-1.899 0.396-3.643 0.294-5.232-0.307-1.588-0.595-2.924-1.579-4.007-2.954-1.085-1.381-1.831-3.047-2.238-4.997v0c-0.478-2.29-0.425-4.307 0.158-6.049 0.588-1.75 1.547-3.176 2.876-4.277 1.33-1.101 2.865-1.834 4.608-2.198v0c1.794-0.374 3.375-0.34 4.74 0.104 1.359 0.445 2.177 1.33 2.454 2.655v0c0.167 0.803 0.045 1.458-0.366 1.966-0.412 0.508-0.924 0.826-1.537 0.954v0c-0.457 0.095-0.864 0.102-1.222 0.02-0.365-0.087-0.692-0.183-0.979-0.286v0l-0.741-3.553c-0.701-0.228-1.31-0.289-1.825-0.181v0c-1.214 0.253-2.18 0.826-2.9 1.718-0.726 0.894-1.191 2.009-1.396 3.345-0.206 1.33-0.144 2.788 0.187 4.374v0c0.313 1.501 0.85 2.819 1.612 3.953 0.762 1.142 1.722 1.973 2.879 2.494 1.157 0.521 2.48 0.627 3.968 0.316v0c0.946-0.197 1.821-0.54 2.625-1.027 0.797-0.486 1.574-1.105 2.33-1.855z" fill="#252525" data-fill-palette-color="primary"></path><path d="M178.31 12.456v0c-0.397 1.994-1.201 3.557-2.413 4.688-1.211 1.132-2.68 1.869-4.406 2.212-1.733 0.341-3.577 0.317-5.532-0.072v0l-0.117-0.024c-0.536-0.107-1.123-0.251-1.76-0.432-0.638-0.175-1.008-0.279-1.11-0.312v0l-1.517 7.619c-0.039 0.196-0.006 0.403 0.1 0.622 0.101 0.21 0.296 0.358 0.585 0.442v0l2.663 0.704-0.349 1.755-10.758-2.142 0.35-1.756 2.2 0.265c0.293 0.031 0.536-0.029 0.73-0.181 0.188-0.16 0.302-0.338 0.34-0.533v0l4.348-21.829c0.039-0.196 0.003-0.407-0.108-0.633-0.119-0.221-0.321-0.366-0.607-0.437v0l-2.428-0.657 0.35-1.755 9.786 1.949c3.864 0.77 6.59 1.958 8.18 3.566 1.584 1.6 2.075 3.914 1.473 6.941zM174.042 11.667v0c0.396-1.987 0.149-3.647-0.741-4.98-0.897-1.334-2.649-2.261-5.258-2.78v0c-0.373-0.074-0.812-0.155-1.318-0.242-0.513-0.088-0.769-0.133-0.768-0.133v0l-2.567 12.885c0.065 0.013 0.362 0.11 0.891 0.29 0.52 0.185 0.974 0.316 1.359 0.393v0l0.127 0.025c2.118 0.422 3.908 0.204 5.371-0.653 1.47-0.863 2.438-2.464 2.904-4.805z" fill="#252525" data-fill-palette-color="primary"></path><path d="M198.05 40.003l-0.663 1.489-5.636-2.51 0.503-2.48c0 0-0.25 0.053-0.75 0.159-0.506 0.103-1.149 0.196-1.93 0.278-0.775 0.085-1.601 0.097-2.478 0.035-0.871-0.06-1.678-0.255-2.421-0.586v0c-1.376-0.613-2.34-1.593-2.893-2.941-0.553-1.348-0.472-2.823 0.241-4.424v0c0.315-0.706 0.732-1.308 1.254-1.807 0.524-0.489 1.293-0.84 2.307-1.051 1.008-0.215 2.381-0.249 4.118-0.104 1.746 0.143 3.989 0.496 6.73 1.061v0l0.728-1.635c1.117-2.509 0.489-4.292-1.886-5.35v0c-0.658-0.293-1.252-0.481-1.784-0.565-0.529-0.09-0.904-0.14-1.126-0.151v0l-1.477 3.315-2.776-1.236c-0.347-0.155-0.641-0.362-0.883-0.623-0.239-0.267-0.254-0.635-0.045-1.104v0c0.464-1.041 1.242-1.716 2.336-2.024 1.087-0.311 2.313-0.352 3.678-0.124 1.365 0.229 2.675 0.622 3.929 1.18v0c1.571 0.7 2.683 1.487 3.337 2.363 0.651 0.881 0.959 1.828 0.924 2.841-0.038 1.019-0.303 2.08-0.794 3.182v0l-4.76 10.686c-0.106 0.237-0.115 0.463-0.028 0.677 0.091 0.223 0.24 0.395 0.449 0.518v0zM192.848 35.168v0l2.937-6.594c-1.907-0.339-3.461-0.52-4.661-0.544-1.201-0.024-2.144 0.07-2.83 0.283-0.689 0.204-1.208 0.491-1.555 0.862-0.354 0.368-0.636 0.789-0.848 1.264v0c-0.347 0.779-0.416 1.614-0.206 2.502 0.204 0.886 0.759 1.531 1.667 1.936v0c0.511 0.228 1.078 0.374 1.698 0.438 0.629 0.061 1.231 0.078 1.806 0.05 0.583-0.032 1.062-0.074 1.435-0.127 0.371-0.046 0.556-0.07 0.557-0.07z" fill="#252525" data-fill-palette-color="primary"></path><path d="M210.996 48.563l-0.909 1.352-8.424-5.66 0.909-1.353 1.91 1.139c0.16 0.108 0.384 0.134 0.67 0.077 0.289-0.047 0.483-0.145 0.584-0.295v0l14.014-20.855-2.639-1.774 0.77-1.145 5.329 1.642 1.42 0.954-15.682 23.336c-0.1 0.149-0.121 0.365-0.061 0.646 0.051 0.283 0.151 0.475 0.3 0.576v0z" fill="#252525" data-fill-palette-color="primary"></path><path d="M223.274 59.188l-1.087 1.215-7.563-6.768 1.087-1.215 1.734 1.391c0.144 0.129 0.362 0.185 0.654 0.169 0.292-0.007 0.498-0.077 0.618-0.211v0l16.756-18.724-2.37-2.121 0.92-1.028 5.053 2.361 1.274 1.14-18.749 20.952c-0.12 0.134-0.17 0.345-0.149 0.632 0.011 0.287 0.084 0.491 0.218 0.611v0z" fill="#252525" data-fill-palette-color="primary"></path><path d="M240.738 75.621l-1.994 1.589c-1.29-0.463-2.555-1.066-3.795-1.808-1.23-0.741-2.286-1.664-3.166-2.769v0c-1.051-1.319-1.742-2.789-2.072-4.41-0.329-1.621-0.177-3.269 0.458-4.943 0.634-1.665 1.857-3.22 3.671-4.666v0c1.699-1.355 3.444-2.209 5.234-2.562 1.785-0.349 3.488-0.223 5.109 0.377 1.62 0.61 3.018 1.652 4.194 3.126v0c1.617 2.027 2.204 4.053 1.762 6.076-0.451 2.022-1.648 3.808-3.593 5.358v0c-0.104 0.083-0.245 0.195-0.422 0.337-0.172 0.137-0.342 0.256-0.509 0.355v0l-8.434-10.578c-0.829 0.661-1.584 1.408-2.266 2.242-0.686 0.829-1.197 1.717-1.532 2.666-0.339 0.944-0.431 1.929-0.277 2.957 0.156 1.018 0.653 2.054 1.493 3.107v0c0.744 0.933 1.685 1.675 2.823 2.225 1.139 0.541 2.244 0.981 3.316 1.321zM238.794 60.111l5.716 7.169 0.711-0.567c1.074-0.856 1.772-1.835 2.096-2.937 0.318-1.098 0.045-2.189-0.819-3.273v0c-0.856-1.074-1.985-1.666-3.386-1.776-1.41-0.112-2.85 0.35-4.318 1.384z" fill="#252525" data-fill-palette-color="primary"></path><path d="M248.266 93.527v0l-1.473 0.786c0 0-0.227-0.177-0.681-0.532-0.451-0.349-0.975-0.843-1.574-1.484-0.608-0.643-1.148-1.408-1.622-2.296v0c-0.734-1.376-0.943-2.553-0.626-3.531 0.317-0.978 1.202-1.854 2.655-2.629v0l12.217-6.52-1.257-2.355 1.209-0.645 2.532 1.879 4.784-0.422 0.862 1.614-4.464 2.382 2.773 5.196-1.835 0.979-2.773-5.196-10.277 5.484c-1.464 0.781-2.368 1.581-2.709 2.398-0.345 0.811-0.256 1.708 0.268 2.69v0c0.386 0.723 0.814 1.27 1.282 1.639 0.472 0.375 0.708 0.563 0.709 0.563z" fill="#252525" data-fill-palette-color="primary"></path><path d="M258.132 110.531v0c-1.933 0.671-3.683 0.53-5.248-0.422-1.559-0.955-2.746-2.607-3.561-4.956v0c-0.417-1.203-0.677-2.358-0.779-3.465-0.102-1.108-0.14-1.888-0.114-2.342v0l5.233-1.816 0.695 2.002-3.177 1.643c-0.121 0.486-0.2 1.061-0.238 1.723-0.03 0.667 0.089 1.384 0.355 2.152v0c0.393 1.134 1.009 1.901 1.847 2.301 0.842 0.392 1.656 0.452 2.443 0.179v0c1.039-0.361 1.694-1.004 1.965-1.931 0.277-0.929 0.505-2.193 0.684-3.793v0l0.066-0.605c0.182-1.672 0.508-3.02 0.978-4.044 0.479-1.02 1.307-1.734 2.484-2.142v0c1.757-0.61 3.363-0.476 4.818 0.402 1.453 0.872 2.573 2.444 3.362 4.718v0c0.402 1.159 0.656 2.224 0.76 3.197 0.101 0.981 0.132 1.701 0.093 2.159v0l-4.666 1.619-0.715-2.059 2.65-1.269c0.118-0.351 0.178-0.838 0.182-1.46 0.003-0.622-0.102-1.238-0.314-1.849v0c-0.376-1.083-0.903-1.8-1.582-2.15-0.675-0.359-1.399-0.403-2.174-0.135v0c-0.882 0.306-1.473 0.868-1.776 1.685-0.296 0.815-0.535 2.189-0.717 4.123v0c-0.147 1.589-0.456 2.966-0.927 4.132-0.466 1.157-1.342 1.958-2.627 2.403z" fill="#252525" data-fill-palette-color="primary"></path><path d="M36.803 195.786v0c-2.104 0.769-4.032 0.91-5.786 0.422-1.747-0.49-3.275-1.446-4.584-2.87-1.311-1.43-2.342-3.175-3.095-5.235v0l-0.045-0.122c-0.206-0.563-0.408-1.192-0.605-1.887-0.199-0.701-0.313-1.11-0.342-1.227v0l-8.001 2.925c-0.213 0.078-0.389 0.227-0.528 0.449-0.148 0.217-0.177 0.487-0.087 0.809v0l0.868 2.898-1.85 0.676-4.134-11.307 1.85-0.676 0.997 2.201c0.139 0.304 0.338 0.497 0.595 0.581 0.254 0.092 0.487 0.099 0.7 0.021v0l22.942-8.386c0.213-0.078 0.39-0.235 0.53-0.471 0.149-0.232 0.173-0.507 0.072-0.825v0l-0.775-2.644 1.85-0.676 3.766 10.302c1.485 4.063 1.928 7.294 1.328 9.691-0.597 2.404-2.486 4.188-5.666 5.351zM35.103 191.34v0c2.085-0.762 3.499-1.943 4.241-3.541 0.743-1.599 0.612-3.772-0.393-6.521v0c-0.144-0.394-0.32-0.855-0.527-1.383-0.207-0.528-0.311-0.791-0.31-0.792v0l-13.561 4.958c0.027 0.075 0.107 0.408 0.238 0.999 0.133 0.597 0.274 1.099 0.423 1.506v0l0.044 0.122c0.815 2.229 2.04 3.786 3.677 4.671 1.645 0.889 3.701 0.883 6.168-0.019z" fill="#252525" data-fill-palette-color="primary"></path><path d="M27.715 219.106l-1.538 0.916-5.703-9.579 1.538-0.916 1.36 2.03c0.106 0.178 0.316 0.309 0.629 0.393 0.314 0.085 0.554 0.077 0.721-0.022v0l23.703-14.112-1.785-2.998 1.306-0.778 4.518 4.13 0.962 1.615-26.53 15.795c-0.166 0.099-0.289 0.304-0.368 0.614-0.082 0.305-0.074 0.54 0.025 0.707v0z" fill="#252525" data-fill-palette-color="primary"></path><path d="M45.901 241.107l-1.358 1.165-4.414-5.145 1.659-2.227c0 0-0.272-0.066-0.814-0.197-0.548-0.127-1.23-0.333-2.045-0.617-0.81-0.289-1.634-0.666-2.473-1.133-0.838-0.475-1.548-1.052-2.13-1.73v0c-1.076-1.255-1.572-2.682-1.487-4.283 0.084-1.591 0.857-3.014 2.318-4.268v0c0.648-0.556 1.347-0.954 2.098-1.194 0.752-0.25 1.678-0.24 2.778 0.028 1.105 0.264 2.488 0.878 4.149 1.842 1.661 0.964 3.717 2.367 6.166 4.208v0l1.495-1.283c2.287-1.962 2.503-4.023 0.65-6.183v0c-0.516-0.602-1.02-1.071-1.509-1.406-0.485-0.34-0.834-0.567-1.047-0.682v0l-3.028 2.597-2.168-2.527c-0.273-0.319-0.464-0.664-0.573-1.036-0.118-0.373 0.038-0.744 0.468-1.113v0c0.951-0.816 2.041-1.123 3.269-0.92 1.228 0.203 2.465 0.739 3.713 1.61 1.243 0.866 2.355 1.87 3.336 3.013v0c1.233 1.437 1.965 2.745 2.196 3.926 0.236 1.176 0.097 2.258-0.419 3.244-0.516 0.996-1.277 1.926-2.283 2.789v0l-9.752 8.366c-0.212 0.182-0.326 0.403-0.341 0.662-0.015 0.259 0.052 0.5 0.2 0.725v0zM43.01 233.852v0l6.01-5.157c-1.721-1.228-3.174-2.138-4.357-2.73-1.179-0.587-2.162-0.938-2.948-1.055-0.776-0.116-1.424-0.073-1.945 0.128-0.526 0.206-1.004 0.493-1.435 0.862v0c-0.713 0.612-1.176 1.404-1.387 2.376-0.212 0.981 0.036 1.884 0.743 2.708v0c0.399 0.465 0.895 0.879 1.487 1.242 0.592 0.353 1.182 0.651 1.768 0.893 0.592 0.239 1.083 0.423 1.475 0.553 0.393 0.12 0.589 0.18 0.589 0.18z" fill="#252525" data-fill-palette-color="primary"></path><path d="M66.174 251.499v0c-1.407 1.76-3.114 2.656-5.121 2.69-2.008 0.024-4.079-0.817-6.214-2.523v0c-1.093-0.874-2.012-1.796-2.756-2.766-0.748-0.965-1.241-1.666-1.479-2.105v0l3.803-4.756 1.811 1.449-1.991 3.388c0.177 0.526 0.446 1.108 0.806 1.745 0.351 0.639 0.878 1.24 1.581 1.802v0c1.026 0.82 2.046 1.166 3.061 1.039 1.015-0.127 1.806-0.545 2.371-1.253v0c0.753-0.942 0.988-1.924 0.704-2.945-0.29-1.025-0.822-2.334-1.597-3.927v0l-0.288-0.601c-0.811-1.664-1.295-3.109-1.45-4.335-0.16-1.22 0.189-2.366 1.047-3.439v0c1.278-1.598 2.849-2.416 4.714-2.452 1.864-0.037 3.828 0.769 5.889 2.417v0c1.046 0.837 1.904 1.68 2.572 2.53 0.669 0.85 1.118 1.5 1.349 1.949v0l-3.385 4.232-1.866-1.492 1.717-2.724c-0.097-0.402-0.327-0.893-0.691-1.474-0.362-0.571-0.822-1.08-1.379-1.525v0c-0.979-0.783-1.887-1.141-2.724-1.077-0.837 0.065-1.534 0.446-2.092 1.144v0c-0.645 0.807-0.866 1.676-0.663 2.606 0.199 0.936 0.781 2.353 1.747 4.252v0c0.786 1.568 1.305 3.027 1.555 4.38 0.241 1.353-0.103 2.61-1.031 3.771z" fill="#252525" data-fill-palette-color="primary"></path><path d="M82.253 265.231v0l-0.896 1.606c0 0-0.312-0.029-0.936-0.087-0.624-0.058-1.405-0.204-2.344-0.437-0.938-0.233-1.888-0.618-2.848-1.154v0c-1.502-0.838-2.395-1.802-2.68-2.892-0.291-1.093 0.004-2.429 0.884-4.006v0l7.413-13.29-2.558-1.428 0.731-1.309 3.449 0.241 4.166-3.241 1.764 0.984-2.704 4.847 5.65 3.151-1.111 1.991-5.649-3.152-6.24 11.186c-0.887 1.589-1.248 2.861-1.086 3.814 0.169 0.957 0.788 1.734 1.86 2.331v0c0.78 0.435 1.5 0.684 2.159 0.747 0.651 0.065 0.976 0.098 0.976 0.098z" fill="#252525" data-fill-palette-color="primary"></path><path d="M105.554 245.733v0c-0.282 0.72-0.773 1.244-1.473 1.571-0.707 0.325-1.42 0.346-2.14 0.064v0c-0.726-0.284-1.248-0.789-1.566-1.514-0.317-0.725-0.335-1.448-0.054-2.168v0c0.289-0.739 0.793-1.257 1.511-1.557 0.716-0.293 1.437-0.297 2.163-0.012v0c0.72 0.282 1.234 0.769 1.543 1.462 0.3 0.697 0.305 1.415 0.016 2.154zM97.593 272.531l-0.652 1.666-10.019-3.919 0.652-1.667 2.124 0.691c0.619 0.192 1.043-0.004 1.271-0.587v0l5.96-15.233-2.942-1.152 0.586-1.499 5.852 0.411 1.685 0.659-7.184 18.362c-0.102 0.261-0.099 0.509 0.01 0.745 0.108 0.236 0.28 0.418 0.516 0.546v0z" fill="#252525" data-fill-palette-color="primary"></path><path d="M123.531 275.899v0l-0.539 2.563c-1.125 0.329-2.366 0.592-3.722 0.79-1.364 0.203-2.806 0.145-4.327-0.174v0c-2.087-0.439-3.798-1.31-5.131-2.613-1.333-1.302-2.244-2.884-2.731-4.744-0.479-1.865-0.493-3.871-0.042-6.016v0c0.529-2.511 1.472-4.516 2.83-6.016 1.358-1.499 2.95-2.509 4.776-3.031 1.826-0.522 3.695-0.581 5.606-0.179v0c1.97 0.415 3.542 1.147 4.718 2.199 1.177 1.045 1.611 2.297 1.303 3.758v0c-0.184 0.874-0.597 1.475-1.237 1.804-0.643 0.335-1.3 0.431-1.972 0.29v0c-0.496-0.104-0.908-0.28-1.238-0.526-0.33-0.246-0.616-0.487-0.86-0.723v0l0.82-3.894c-0.603-0.536-1.188-0.863-1.755-0.982v0c-1.331-0.28-2.554-0.132-3.67 0.443-1.124 0.581-2.083 1.496-2.877 2.746-0.801 1.248-1.385 2.743-1.751 4.485v0c-0.347 1.65-0.387 3.215-0.12 4.696 0.268 1.48 0.868 2.737 1.802 3.771 0.934 1.034 2.219 1.724 3.856 2.068v0c1.037 0.218 2.064 0.261 3.08 0.127 1.024-0.139 2.084-0.42 3.181-0.842z" fill="#252525" data-fill-palette-color="primary"></path><path d="M175.62 254.346v0c0.439 2.196 0.285 4.124-0.464 5.783-0.75 1.652-1.929 3.017-3.535 4.092-1.613 1.077-3.495 1.831-5.645 2.262v0l-0.128 0.025c-0.588 0.118-1.241 0.221-1.957 0.31-0.723 0.09-1.145 0.141-1.265 0.151v0l1.672 8.354c0.044 0.222 0.165 0.419 0.363 0.59 0.192 0.179 0.454 0.249 0.786 0.21v0l2.996-0.416 0.387 1.931-11.805 2.362-0.386-1.931 2.327-0.65c0.322-0.092 0.543-0.258 0.665-0.5 0.129-0.237 0.172-0.466 0.127-0.688v0l-4.792-23.952c-0.044-0.222-0.173-0.421-0.384-0.596-0.207-0.183-0.475-0.248-0.804-0.196v0l-2.732 0.363-0.386-1.932 10.755-2.152c4.242-0.849 7.502-0.794 9.781 0.164 2.285 0.957 3.76 3.095 4.424 6.416zM170.967 255.348v0c-0.435-2.177-1.387-3.754-2.853-4.731-1.467-0.978-3.635-1.18-6.505-0.606v0c-0.412 0.082-0.894 0.186-1.447 0.31-0.553 0.124-0.829 0.186-0.829 0.187v0l2.832 14.157c0.078-0.016 0.42-0.043 1.024-0.082 0.61-0.041 1.128-0.103 1.553-0.189v0l0.127-0.025c2.327-0.466 4.052-1.44 5.177-2.922 1.129-1.49 1.436-3.523 0.921-6.099z" fill="#252525" data-fill-palette-color="primary"></path><path d="M206.707 262.108l0.735 1.631-6.181 2.785-1.669-2.22c0 0-0.14 0.242-0.419 0.726-0.276 0.49-0.666 1.086-1.168 1.788-0.505 0.696-1.1 1.38-1.784 2.054-0.692 0.67-1.446 1.189-2.26 1.555v0c-1.507 0.679-3.017 0.752-4.529 0.22-1.503-0.529-2.65-1.672-3.441-3.428v0c-0.35-0.778-0.535-1.561-0.555-2.349-0.028-0.792 0.242-1.677 0.81-2.657 0.565-0.986 1.544-2.14 2.937-3.462 1.393-1.322 3.318-2.899 5.776-4.73v0l-0.809-1.796c-1.238-2.747-3.154-3.536-5.749-2.366v0c-0.723 0.326-1.315 0.676-1.775 1.051-0.462 0.369-0.779 0.64-0.95 0.812v0l1.639 3.638-3.036 1.367c-0.383 0.173-0.768 0.258-1.156 0.258-0.391 0.008-0.703-0.246-0.936-0.763v0c-0.515-1.143-0.502-2.274 0.039-3.395 0.54-1.121 1.404-2.157 2.591-3.109 1.181-0.949 2.458-1.733 3.832-2.351v0c1.726-0.778 3.188-1.111 4.386-1 1.195 0.105 2.193 0.543 2.994 1.316 0.81 0.776 1.488 1.768 2.033 2.977v0l5.278 11.714c0.115 0.255 0.295 0.427 0.538 0.514 0.244 0.087 0.495 0.092 0.752 0.013v0zM198.931 262.836v0l-3.253-7.22c-1.664 1.305-2.946 2.442-3.848 3.412-0.895 0.966-1.51 1.81-1.843 2.53-0.33 0.712-0.472 1.346-0.426 1.903 0.049 0.563 0.19 1.103 0.423 1.619v0c0.386 0.857 1.016 1.524 1.888 2.001 0.882 0.48 1.818 0.497 2.808 0.05v0c0.559-0.252 1.096-0.611 1.61-1.076 0.505-0.469 0.957-0.95 1.356-1.444 0.396-0.5 0.711-0.92 0.946-1.26 0.226-0.343 0.339-0.514 0.339-0.515z" fill="#252525" data-fill-palette-color="primary"></path><path d="M221.655 252.278l1.003 1.483-9.236 6.244-1.003-1.483 1.949-1.474c0.171-0.116 0.29-0.333 0.356-0.651 0.066-0.318 0.045-0.558-0.063-0.718v0l-15.451-22.854-2.89 1.955-0.852-1.26 3.863-4.747 1.557-1.053 17.293 25.579c0.108 0.16 0.32 0.271 0.635 0.331 0.309 0.065 0.544 0.043 0.704-0.065v0z" fill="#252525" data-fill-palette-color="primary"></path><path d="M235.305 240.512l1.191 1.336-8.323 7.417-1.191-1.336 1.735-1.72c0.154-0.137 0.243-0.368 0.266-0.693 0.023-0.324-0.029-0.559-0.158-0.703v0l-18.353-20.595-2.605 2.321-1.011-1.134 3.197-5.22 1.403-1.25 20.542 23.051c0.129 0.144 0.353 0.226 0.673 0.244 0.315 0.023 0.545-0.03 0.689-0.159v0z" fill="#252525" data-fill-palette-color="primary"></path><path d="M249.926 217.848l2.181 1.754c-0.189 1.49-0.533 2.988-1.033 4.493-0.5 1.505-1.235 2.86-2.204 4.066v0c-1.161 1.444-2.571 2.539-4.23 3.283-1.655 0.739-3.453 0.97-5.394 0.693-1.941-0.277-3.906-1.216-5.896-2.815v0c-1.86-1.495-3.193-3.157-3.998-4.985-0.807-1.837-1.08-3.695-0.819-5.572 0.255-1.882 1.033-3.63 2.332-5.246v0c1.788-2.224 3.817-3.338 6.087-3.343 2.28-0.006 4.482 0.845 6.607 2.554v0c0.114 0.092 0.268 0.215 0.46 0.369 0.192 0.155 0.363 0.309 0.512 0.464v0l-9.309 11.58c0.904 0.727 1.885 1.357 2.943 1.892 1.053 0.53 2.128 0.864 3.224 1 1.096 0.137 2.174-0.002 3.234-0.415 1.06-0.414 2.051-1.195 2.974-2.343v0c0.823-1.023 1.391-2.209 1.704-3.556 0.308-1.352 0.516-2.642 0.625-3.873zM233.767 223.665l6.308-7.847-0.787-0.633c-1.174-0.944-2.387-1.457-3.637-1.539-1.26-0.081-2.367 0.471-3.32 1.655v0c-0.944 1.174-1.306 2.529-1.087 4.065 0.219 1.536 1.06 2.969 2.523 4.299z" fill="#252525" data-fill-palette-color="primary"></path><path d="M262.224 200.527v0l1.619 0.873c0 0-0.025 0.312-0.073 0.937-0.049 0.625-0.184 1.408-0.404 2.35-0.22 0.942-0.591 1.896-1.114 2.864v0c-0.816 1.514-1.768 2.421-2.854 2.721-1.089 0.306-2.429 0.03-4.018-0.827v0l-13.394-7.225-1.391 2.578-1.32-0.712 0.193-3.452-3.299-4.12 0.959-1.777 4.884 2.634 3.071-5.693 2.006 1.082-3.071 5.693 11.273 6.081c1.602 0.864 2.878 1.208 3.829 1.032 0.954-0.182 1.722-0.813 2.304-1.892v0c0.424-0.786 0.663-1.509 0.716-2.17 0.056-0.651 0.084-0.977 0.084-0.978z" fill="#252525" data-fill-palette-color="primary"></path><path d="M266.037 179.147v0c2.123 0.755 3.528 2.075 4.216 3.961 0.679 1.89 0.561 4.122-0.354 6.697v0c-0.469 1.319-1.04 2.488-1.714 3.508-0.668 1.022-1.169 1.717-1.506 2.086v0l-5.737-2.04 0.777-2.186 3.852 0.776c0.439-0.339 0.901-0.783 1.387-1.333 0.489-0.541 0.885-1.235 1.186-2.082v0c0.44-1.237 0.434-2.315-0.018-3.233-0.452-0.918-1.105-1.528-1.959-1.832v0c-1.137-0.404-2.141-0.305-3.014 0.298-0.874 0.609-1.938 1.54-3.189 2.792v0l-0.475 0.468c-1.308 1.311-2.515 2.24-3.622 2.787-1.101 0.549-2.298 0.594-3.592 0.134v0c-1.928-0.686-3.214-1.903-3.859-3.653-0.644-1.75-0.524-3.869 0.361-6.356v0c0.449-1.262 0.966-2.348 1.551-3.258 0.585-0.91 1.052-1.547 1.401-1.911v0l5.106 1.816-0.801 2.251-3.135-0.733c-0.348 0.223-0.737 0.601-1.167 1.135-0.422 0.529-0.752 1.13-0.991 1.802v0c-0.42 1.181-0.462 2.156-0.128 2.926 0.335 0.77 0.923 1.304 1.764 1.603v0c0.974 0.346 1.867 0.271 2.68-0.225 0.819-0.494 1.969-1.507 3.448-3.04v0c1.225-1.255 2.435-2.222 3.631-2.901 1.2-0.67 2.501-0.756 3.901-0.257z" fill="#252525" data-fill-palette-color="primary"></path><path d="M2.611 143.376c0-6.487 5.258-11.745 11.746-11.745 6.487 0 11.745 5.258 11.745 11.745 0 6.487-5.258 11.745-11.745 11.745-6.487 0-11.745-5.258-11.746-11.745z" fill="#252525" data-fill-palette-color="primary"></path><path d="M254.585 143.376c0-6.487 5.258-11.745 11.745-11.745 6.487 0 11.745 5.258 11.745 11.745 0 6.487-5.258 11.745-11.745 11.745-6.487 0-11.745-5.258-11.745-11.745z" fill="#252525" data-fill-palette-color="primary"></path></g><g id="text-1"></g></svg></g></svg></g></svg></g><g></g></svg></g><defs></defs></svg><rect width="280" height="280" fill="none" stroke="none" visibility="hidden"></rect></g></svg></g></svg>